<svg id="Layer_1" data-name="Layer 1" xmlns="http://www.w3.org/2000/svg" viewBox="0 0 371.07 377.94"><defs><style>.cls-1,.cls-2{fill:#fff;}.cls-2{fill-rule:evenodd;}</style></defs><path class="cls-1" d="M384.1,281.6c6.55-2.36,8.91-4,10.64-7.48l.81-1.64V183.67l-1.16-2.89c-2.38-5.91-8.23-12.61-17.26-19.81-28-22.28-65.1-35.84-107.22-39.16-4.8-.38-25.87-.72-29.78-.48-15.8,1-22.56,1.75-34.71,4-33.13,6.27-62.2,19.75-85.18,39.47-6.4,5.5-10.32,10.4-12.5,15.65l-1.18,2.82v89.51l.83,1.59c2,3.92,3,4.49,16.79,9.47,2.14.77,9.35,3.41,16,5.86l4.61,1.69a17.27,17.27,0,0,1,7.46-5.09c1.81-.62,2.4-.82,34.06-.87,0-7.14,0-16.65,0-29.3V206.75H315.73v49.87c0,10.75,0,20.73,0,28.9l35.55,0a11.21,11.21,0,0,1,4.94,1.16l.67.34a18,18,0,0,1,4.23,2.92l.58-.22,11.1-4.05C376.6,284.31,381.67,282.47,384.1,281.6Z" transform="translate(-65.5 -80.4)"/><path class="cls-1" d="M254.13,285.49l52.41,0c0-6.11,0-13.61,0-22.77V215.92h-111l.09,47.13,0,22.42C209.79,285.46,228.69,285.47,254.13,285.49Z" transform="translate(-65.5 -80.4)"/><path class="cls-1" d="M436.27,184.46c-1-15.88-7.1-29.44-18.78-41.68C392.06,116.13,352.12,95.2,309.92,86.4c-9.08-1.89-15.7-3-26.62-4.43-9.15-1.2-33.42-1.94-45.64-1.38-61,2.8-114,23.89-150.95,60-12,11.76-19.19,25.63-20.84,40.25-.49,4.36-.49,91.67,0,95.69,2,16.14,13.64,32.39,28.36,39.46,3,1.42,8.48,3.51,32.48,12.3,8,2.92,15.11,5.54,15.86,5.83s19.13,7,34.86,12.8q-1.29-3.36-2.7-6.67a187.64,187.64,0,0,0-10.19-20.12l-11-.12-3.19-1.59a17.51,17.51,0,0,1-9.69-16.83c0-.56.11-1.12.19-1.67l-6.13-2.27c-1-.37-4-1.49-6.7-2.48l-8.19-3c-1.79-.66-4.81-1.75-6.7-2.43-9-3.22-13.41-7.52-15.59-15.16-.69-2.4-.71-3.57-.71-46.16v-43.7l.89-3.29c3.7-13.83,17.22-27.4,41.76-41.89C172.42,120.11,219,109.61,262,112c44.25,2.42,79.13,13,109.43,33.22,19.61,13.09,29.66,24.11,32.82,36l.84,3.17v44.06c0,49,.16,45.47-2.39,50.52-2.68,5.29-6.46,8.09-15.3,11.34l-21.28,7.82a17.78,17.78,0,0,1,.63,4.91,17.26,17.26,0,0,1-10,15.54L353.6,320l-8.7.1-2,0c-2.48,4.23-6.56,11.93-9.05,17.55-1,2.24-1.95,4.5-2.87,6.79l14.74-5.4c2.81-1,7.33-2.68,10.05-3.69s6.83-2.51,9.16-3.35l10.57-3.88L386,324.29c10.53-3.82,17.14-6.3,19.91-7.48,15-6.41,27.18-22.21,30-38.93C436.54,274.31,436.83,193.42,436.27,184.46Z" transform="translate(-65.5 -80.4)"/><g id="svgg"><path id="path0" class="cls-2" d="M157.69,295.19c-6.85,2.36-7.36,11.86-.81,15.11l1.3.66,6.74.07,6.73.07,1.06,1.65A184.38,184.38,0,0,1,184.78,336c14.89,35.09,20.12,73.94,15.43,114.65-1,8.3-.92,7.8-.42,7.61.66-.25,3.66-.93,7.79-1.75,4.35-.87,3.74-.45,4.12-2.8.42-2.61,2-4.86,6.9-10l.51-.54,4.21,4.9c2.32,2.7,4.34,5,4.5,5.14s1.64.12,4.73-.16c2.44-.22,6-.46,8-.53s3.89-.19,4.3-.26c.61-.09,1.38-.86,4.8-4.83,3.28-3.8,4.12-4.66,4.35-4.41l4,4.67c4.39,5.1,3.51,4.6,8.38,4.8,2.15.09,6,.35,8.47.57l4.56.4,4.36-5a59.51,59.51,0,0,1,4.56-5c.11,0,1.75,1.84,3.65,4l3,4.1.69,2,.27,2.16,5,1c2.74.55,5.42,1.15,6,1.33,1.34.45,1.31.58.76-3.66-5.54-42.66.09-85,16.11-121,3.32-7.45,9.86-19.55,11.83-21.87.3-.35,1.07-.4,6.91-.46l6.59-.07,1.31-.62a8.26,8.26,0,0,0,0-14.93l-1.08-.53-95.24-.06c-91,0-95.29,0-96.42.37m67.41,18.09c1,4,2.35,11.1,3.16,16.19l.81,5-.65.7c-.36.39-2.79,3.11-5.41,6s-4.86,5.35-5,5.35c-.45,0-31.92-34.85-31.92-35.36,0-.19,4.92-.24,19.23-.2l19.24.06.52,2.18m46.62-1.78c-.16.58-1.8,8.84-2.9,14.64l-.72,3.79-1.31,1.5c-4.32,5-12.53,14-12.67,14s-10.87-12-12.78-14.18c-1.13-1.31-1.2-1.54-2.27-7.55-.56-3.14-1.33-7.12-1.72-8.85s-.7-3.3-.7-3.49,2.08-.35,17.61-.35h17.6l-.14.52m50.26-.23c-.1.16-2.72,3.08-5.83,6.49S306,329,300.43,335.11s-10.19,11.14-10.34,11.14c-.38,0-10.7-11.59-10.7-12,0-1.6,2.39-14.67,3.7-20.19l.72-3.06H303c15.28,0,19.14.06,19,.29M241.59,348.9c4.19,4.66,4.72,5.34,4.45,5.68-1.11,1.36-10.13,11.44-10.28,11.5a52.93,52.93,0,0,1-4.4-4.6l-4.84-5.35-.64-.69,1.77-2,5.31-5.92c1.94-2.17,3.61-3.95,3.71-3.95s2.31,2.38,4.92,5.29m32.87-2.41c4,4.34,7.69,8.59,7.69,8.72s-9.49,10.69-9.67,10.69-2.48-2.62-5.32-5.82L262,354.26l4.74-5.32a60.3,60.3,0,0,1,5-5.27,30.77,30.77,0,0,1,2.75,2.82m30.69,3.67c-.73,2.28-1.68,5.4-2.11,6.95a17.47,17.47,0,0,1-.92,2.81,48.91,48.91,0,0,1-4.12-4.71c0-.19,8.32-9.33,8.41-9.24s-.53,1.92-1.26,4.19m-99.49.28,3.94,4.34.67.72-1.89,2.15c-1,1.19-2,2.19-2,2.22a12.34,12.34,0,0,1-.92-2.64c-.43-1.49-1.32-4.44-2-6.56s-1.16-3.84-1.13-3.84,1.55,1.62,3.35,3.61m53.73,18.42c2.82,3.14,5.12,5.79,5.12,5.88s-2.36,2.79-5.24,6L254,386.59l-.61-.64c-.64-.67-7.06-7.75-8.55-9.43s-1.75-1.16,6.32-10.11c1.63-1.8,3-3.27,3-3.27s2.37,2.57,5.18,5.72m34.5-.61c2.05,2.31,4,4.52,4.41,4.92l.67.73-4.74,5.36c-2.61,2.95-4.84,5.39-5,5.43s-8.74-9.38-8.92-9.83c-.07-.18,9.4-10.8,9.64-10.8.09,0,1.84,1.89,3.89,4.19m-70.27,2.05a60.24,60.24,0,0,1,4.07,4.77c0,.29-8.27,9.67-8.53,9.67s-9.45-10.46-9.56-10.76a96,96,0,0,1,6.56-7.59l2-2.16.71.78,4.78,5.29M277,388.65l4.5,5.06-4.3,4.88-5.24,5.94-.95,1.06-4.47-5c-2.46-2.75-4.47-5.12-4.47-5.26s10.16-11.73,10.35-11.73,2.1,2.28,4.58,5.06m-34.84,2.18c2.17,2.4,3.94,4.42,3.94,4.49s-7.31,8.45-8.59,9.81c-.25.27-10.36-10.88-10.36-11.43,0-.19,4.89-5.83,7.31-8.43l1.34-1.44,1.21,1.32c.67.72,3,3.27,5.15,5.68m-17.89,17.38c2.69,3.05,4.91,5.7,4.92,5.88a143.05,143.05,0,0,1-9.55,11c-.08,0-1.35-1.4-2.81-3.05l-2.65-3-.15-5.26-.15-5.26,2.59-2.93a34.63,34.63,0,0,1,2.75-2.93c.09,0,2.36,2.5,5.05,5.55M292,405.65l2.56,2.87-.13,3.08c-.07,1.69-.13,4-.13,5.19v2.12l-2.78,3.19-2.85,3.26c-.07.08-9.62-10.71-9.72-11s10.06-11.76,10.3-11.67,1.34,1.37,2.75,2.95m-33.23,3.71c2.36,2.61,4.29,4.86,4.29,5s-2,2.53-4.43,5.32l-4.42,5.07-.92-1c-.5-.56-2.59-2.94-4.64-5.29L245,414.18l4.06-4.52c2.24-2.49,4.27-4.78,4.51-5.09.35-.47.48-.51.71-.26l4.56,5.05m-17,18.94c4,4.58,4.51,5.25,4.27,5.63s-2.3,2.78-4.78,5.66l-4.57,5.3c-.08.1-9.09-10.33-9.22-10.68s9.28-11.08,9.6-11.09c.08,0,2.19,2.33,4.7,5.18m30.5-3.64c2.47,2.59,8.42,9.36,8.42,9.59s-7.44,9-8.82,10.4c-.22.24-1.25-.83-5.15-5.36l-4.87-5.65,1.41-1.65c2.32-2.71,7.6-8.65,7.68-8.65a16.48,16.48,0,0,1,1.33,1.32" transform="translate(-65.5 -80.4)"/></g></svg>